Coordinates
version=1
nRows=30
nColumns=33
inDegrees=yes

Units are S.I. units (second, meters, Newtons, ...)
Angles are in degrees.

endheader
time	ground_thorax_rot_x	ground_thorax_rot_y	ground_thorax_rot_z	ground_thorax_tx	ground_thorax_ty	ground_thorax_tz	clav_prot_r	clav_elev_r	scapula_abduction_r	scapula_elevation_r	scapula_upward_rot_r	scapula_winging_r	shoulder_elv_r	plane_of_elev_r	axial_rot_r	elbow_flexion_r	pro_sup_r	wrist_flex_r	wrist_dev_r	clav_prot_l	clav_elev_l	scapula_abduction_l	scapula_elevation_l	scapula_upward_rot_l	scapula_winging_l	shoulder_elv_l	plane_of_elev_l	axial_rot_l	elbow_flexion_l	pro_sup_l	wrist_flex_l	wrist_dev_l	
7.8500	-25.924662	-35.026381	52.155145	-65.607402	787.599139	-3.698542	6.678999	-45.000000	35.150466	-45.000000	-45.000000	-2254.648863	-2638.678744	151.586014	-106.210225	1091.122838	-327.360406	16.996861	10.533439	14.717305	37.598822	-29.940037	-45.000000	-45.000000	2234.376455	-2619.997232	136.274481	-180.000000	-354.881470	403.880007	10.243732	-20.693521	
7.8600	-25.903732	-34.952896	52.161956	-65.856768	787.319034	-4.036958	6.616495	-45.000000	35.139707	-45.000000	-45.000000	-2254.640730	-2638.696998	151.588648	-106.653110	1091.068064	-327.080361	17.071904	10.549117	14.758048	37.622180	-29.907644	-45.000000	-45.000000	2234.368267	-2619.973208	136.272026	-180.000000	-354.937310	404.297179	10.092639	-20.931438	
7.8700	-25.864870	-34.899833	52.183889	-66.144318	787.038232	-4.373164	6.524049	-45.000000	35.158169	-45.000000	-45.000000	-2254.629391	-2638.689229	151.616251	-107.074977	1091.035898	-326.792984	17.170889	10.555390	14.839536	37.659491	-29.863524	-45.000000	-45.000000	2234.366049	-2619.948761	136.286730	-180.000000	-354.991695	404.758952	9.892675	-21.205504	
7.8800	-25.860104	-34.834170	52.169280	-66.512170	786.749125	-4.714442	6.474822	-45.000000	35.145940	-45.000000	-45.000000	-2254.625357	-2638.686681	151.607231	-107.446728	1091.026070	-326.458239	17.241738	10.560704	14.876382	37.686134	-29.842053	-45.000000	-45.000000	2234.391085	-2619.907800	136.286654	-180.000000	-355.022056	405.359219	9.703107	-21.468387	
7.8900	-25.880642	-34.767344	52.121018	-66.956157	786.453440	-5.050616	6.450305	-45.000000	35.133099	-45.000000	-45.000000	-2254.629496	-2638.683009	151.573625	-107.757994	1091.044913	-326.094339	17.297002	10.569875	14.890924	37.699110	-29.841397	-45.000000	-45.000000	2234.441675	-2619.857696	136.282395	-180.000000	-355.032862	406.084689	9.513234	-21.723445	
7.9000	-25.906458	-34.709049	52.069257	-67.472885	786.150846	-5.371996	6.432413	-45.000000	35.115671	-45.000000	-45.000000	-2254.633380	-2638.664794	151.540831	-108.018433	1091.083905	-325.714647	17.348133	10.566634	14.904481	37.721537	-29.840974	-45.000000	-45.000000	2234.502205	-2619.795981	136.283101	-180.000000	-355.030460	406.923203	9.300564	-21.979406	
7.9100	-25.953126	-34.651996	51.988615	-68.043034	785.842847	-5.665290	6.434050	-45.000000	35.107343	-45.000000	-45.000000	-2254.648552	-2638.649133	151.491410	-108.216097	1091.142920	-325.338258	17.385174	10.572296	14.901589	37.724958	-29.859088	-45.000000	-45.000000	2234.580493	-2619.734521	136.279899	-180.000000	-355.008873	407.843555	9.097928	-22.207186	
7.9200	-25.987332	-34.611632	51.926071	-68.642198	785.532147	-5.917773	6.423399	-45.000000	35.106217	-45.000000	-45.000000	-2254.657600	-2638.614200	151.466078	-108.376844	1091.206066	-324.989492	17.427819	10.559804	14.916951	37.747897	-29.863882	-45.000000	-45.000000	2234.649034	-2619.670212	136.290414	-180.000000	-354.980579	408.787064	8.876725	-22.419848	
7.9300	-26.039603	-34.568466	51.841462	-69.248106	785.221305	-6.122193	6.431907	-45.000000	35.108875	-45.000000	-45.000000	-2254.685077	-2638.592483	151.425435	-108.488649	1091.274961	-324.678258	17.455123	10.562887	14.914854	37.743521	-29.884145	-45.000000	-45.000000	2234.728559	-2619.617699	136.286757	-180.000000	-354.935894	409.709813	8.690130	-22.582232	
7.9400	-26.074686	-34.538198	51.782620	-69.845247	784.914019	-6.277083	6.427835	-45.000000	35.109876	-45.000000	-45.000000	-2254.705002	-2638.555292	151.414318	-108.581881	1091.336651	-324.414360	17.486467	10.542653	14.928422	37.762880	-29.886068	-45.000000	-45.000000	2234.787919	-2619.568570	136.295435	-180.000000	-354.884583	410.558045	8.505769	-22.715602	
7.9500	-26.128069	-34.502691	51.698086	-70.424427	784.614556	-6.387101	6.443912	-45.000000	35.115437	-45.000000	-45.000000	-2254.745190	-2638.536886	151.381353	-108.637357	1091.399643	-324.192279	17.503004	10.545422	14.923197	37.746002	-29.906234	-45.000000	-45.000000	2234.863376	-2619.537305	136.282588	-180.000000	-354.824975	411.305800	8.372541	-22.796893	
7.9600	-26.163486	-34.478994	51.637109	-70.982380	784.327276	-6.461043	6.448158	-45.000000	35.122306	-45.000000	-45.000000	-2254.773313	-2638.502978	151.373908	-108.685474	1091.453337	-324.009376	17.523944	10.524360	14.933132	37.752088	-29.911599	-45.000000	-45.000000	2234.921572	-2619.507941	136.283185	-180.000000	-354.766234	411.925381	8.251617	-22.852718	
7.9700	-26.212316	-34.446799	51.559328	-71.518397	784.056293	-6.509177	6.467741	-45.000000	35.125884	-45.000000	-45.000000	-2254.819723	-2638.481932	151.345384	-108.712074	1091.506965	-323.853516	17.533540	10.518062	14.927023	37.735177	-29.930917	-45.000000	-45.000000	2234.987776	-2619.488892	136.268948	-180.000000	-354.704776	412.409797	8.178842	-22.870343	
7.9800	-26.241291	-34.423315	51.508419	-72.033347	783.805654	-6.539690	6.471077	-45.000000	35.127292	-45.000000	-44.999999	-2254.849875	-2638.440693	151.344833	-108.744993	1091.553280	-323.718889	17.549652	10.478269	14.937574	37.750424	-29.933534	-45.000000	-45.000000	2235.032229	-2619.468921	136.273797	-180.000000	-354.645792	412.746004	8.117554	-22.869359	
7.9900	-26.284318	-34.388661	51.442539	-72.528069	783.579432	-6.556677	6.487657	-45.000000	35.120488	-45.000000	-44.999999	-2254.899696	-2638.409031	151.320793	-108.765902	1091.603545	-323.592550	17.558189	10.452350	14.933466	37.748622	-29.948727	-45.000000	-45.000000	2235.081992	-2619.455467	136.267573	-180.000000	-354.581579	412.932854	8.101940	-22.836640	
8.0000	-26.310586	-34.364827	51.398925	-73.003318	783.381113	-6.559823	6.487654	-45.000000	35.119600	-45.000000	-44.999998	-2254.930333	-2638.362012	151.324206	-108.795665	1091.648966	-323.469561	17.573430	10.396127	14.947247	37.768045	-29.951731	-45.000000	-45.000000	2235.122202	-2619.446944	136.271093	-180.000000	-354.527432	412.959452	8.103139	-22.780710	
8.0100	-26.348798	-34.336004	51.338012	-73.458990	783.213609	-6.545669	6.498497	-45.000000	35.119654	-45.000000	-44.999997	-2254.970058	-2638.325667	151.306517	-108.813960	1091.696779	-323.339890	17.583678	10.356643	14.948404	37.775071	-29.966505	-45.000000	-45.000000	2235.157543	-2619.446111	136.271157	-180.000000	-354.485113	412.818311	8.155310	-22.690368	
8.0200	-26.371101	-34.323296	51.293140	-73.895037	783.079272	-6.509701	6.494945	-45.000000	35.130715	-45.000000	-44.999994	-2254.991501	-2638.276725	151.307801	-108.840904	1091.745033	-323.204517	17.600309	10.292161	14.966109	37.789360	-29.973093	-45.000000	-45.000000	2235.194752	-2619.458760	136.266849	-180.000000	-354.471211	412.498292	8.236689	-22.565491	
8.0300	-26.403397	-34.307376	51.230969	-74.311874	782.979843	-6.448923	6.506387	-45.000000	35.140074	-45.000000	-44.999990	-2255.026385	-2638.236283	151.281058	-108.860599	1091.797117	-323.057332	17.612366	10.251376	14.970963	37.787279	-29.991625	-45.000000	-45.000000	2235.227821	-2619.479467	136.255683	-180.000000	-354.471598	411.989804	8.373833	-22.407384	
8.0400	-26.425427	-34.305214	51.176332	-74.711834	782.916643	-6.363551	6.509933	-45.000000	35.159182	-45.000000	-44.999982	-2255.046671	-2638.189498	151.264633	-108.890671	1091.845666	-322.902743	17.629983	10.201451	14.984695	37.787365	-30.009249	-45.000000	-45.000000	2235.264461	-2619.511901	136.240923	-180.000000	-354.491140	411.300802	8.544948	-22.216441	
8.0500	-26.458295	-34.296730	51.105163	-75.099399	782.890565	-6.257949	6.525924	-45.000000	35.173602	-45.000000	-44.999967	-2255.076395	-2638.147556	151.224456	-108.921204	1091.892484	-322.740838	17.643505	10.175816	14.985351	37.786608	-30.037775	-45.000000	-45.000000	2235.280964	-2619.538652	136.235104	-180.000000	-354.514123	410.447403	8.759216	-22.010705	
8.0600	-26.488040	-34.294437	51.038091	-75.481819	782.902292	-6.139801	6.534203	-45.000000	35.189939	-45.000000	-44.999941	-2255.100110	-2638.097690	151.191315	-108.968811	1091.941061	-322.581236	17.663716	10.141468	14.990941	37.791052	-30.069408	-45.000000	-45.000000	2235.305962	-2619.568984	136.223001	-180.000000	-354.538786	409.467807	8.991297	-21.785929	
8.0700	-26.531236	-34.281857	50.953686	-75.868413	782.951679	-6.018809	6.551659	-45.000000	35.200140	-45.000000	-44.999895	-2255.136254	-2638.052203	151.139740	-109.026925	1091.991908	-322.424059	17.679338	10.126386	14.989363	37.790961	-30.109025	-45.000000	-45.000000	2235.322940	-2619.587626	136.211122	-180.000000	-354.554866	408.399307	9.238699	-21.573020	
8.0800	-26.574149	-34.272943	50.868920	-76.269354	783.037880	-5.904412	6.559812	-45.000000	35.215679	-45.000000	-44.999812	-2255.161897	-2637.999834	151.096071	-109.107045	1092.043672	-322.275388	17.702573	10.100964	14.992305	37.798579	-30.155413	-45.000000	-45.000000	2235.352305	-2619.605799	136.195264	-180.000000	-354.565504	407.298378	9.479137	-21.358292	
8.0900	-26.629223	-34.255090	50.764782	-76.694613	783.159228	-5.804393	6.571271	-45.000000	35.233475	-45.000000	-44.999664	-2255.192061	-2637.948297	151.033320	-109.203350	1092.100748	-322.133699	17.719949	10.084594	14.995899	37.796132	-30.208878	-45.000000	-45.000000	2235.384579	-2619.607345	136.169385	-180.000000	-354.574601	406.210368	9.707306	-21.177362	
8.1000	-26.683544	-34.236934	50.661834	-77.152918	783.313792	-5.723776	6.573600	-45.000000	35.251784	-45.000000	-44.999397	-2255.215244	-2637.881925	150.972058	-109.326073	1092.164583	-322.002030	17.746454	10.049779	15.003385	37.803245	-30.272392	-45.000000	-45.000000	2235.433801	-2619.609410	136.140226	-180.000000	-354.571233	405.183029	9.907915	-21.003809	
8.1100	-26.748793	-34.207105	50.540643	-77.651422	783.499280	-5.665204	6.577322	-45.000000	35.270943	-45.000000	-44.998922	-2255.240912	-2637.813485	150.892590	-109.468191	1092.229307	-321.874481	17.764783	10.019535	15.014365	37.795984	-30.341340	-45.000000	-45.000000	2235.491423	-2619.594715	136.099539	-180.000000	-354.559342	404.243551	10.079321	-20.877029	
8.1200	-26.818516	-34.170927	50.411484	-78.195310	783.713594	-5.629302	6.576248	-45.000000	35.292492	-45.000000	-44.998062	-2255.259861	-2637.733165	150.806906	-109.630562	1092.297217	-321.751623	17.792432	9.980755	15.023758	37.799167	-30.425026	-45.000000	-45.000000	2235.559073	-2619.578206	136.064763	-180.000000	-354.527332	403.424011	10.218898	-20.763453	
8.1300	-26.902216	-34.120371	50.260127	-78.788488	783.954946	-5.615640	6.576009	-45.000000	35.317947	-45.000000	-44.996547	-2255.281378	-2637.651851	150.702845	-109.807501	1092.368097	-321.630190	17.810997	9.946773	15.037901	37.785219	-30.512855	-45.000000	-45.000000	2235.636278	-2619.538425	136.015374	-180.000000	-354.482725	402.736966	10.325954	-20.701679	
8.1400	-26.990383	-34.061105	50.103149	-79.433811	784.221914	-5.623050	6.571842	-45.000000	35.345290	-45.000000	-44.993763	-2255.298212	-2637.560528	150.599215	-109.998348	1092.439613	-321.509500	17.838159	9.904351	15.051389	37.784433	-30.612658	-45.000000	-45.000000	2235.720067	-2619.494930	135.973525	-180.000000	-354.417777	402.187707	10.401663	-20.652237	
